<mxfile host="app.diagrams.net" agent="Mozilla/5.0 (Windows NT 10.0; Win64; x64) AppleWebKit/537.36 (KHTML, like Gecko) Chrome/124.0.0.0 Safari/537.36 Edg/124.0.0.0" version="24.7.16">
  <diagram name="第 1 页" id="ERFUcexMuCei7dbkSqdK">
    <mxGraphModel dx="1386" dy="793" grid="1" gridSize="10" guides="1" tooltips="1" connect="1" arrows="1" fold="1" page="1" pageScale="1" pageWidth="827" pageHeight="1169" math="0" shadow="0">
      <root>
        <mxCell id="0" />
        <mxCell id="1" parent="0" />
        <mxCell id="hKppfMFbeSZoKYwbKGWA-1" value="&lt;font style=&quot;font-size: 18px;&quot;&gt;数据处理&lt;/font&gt;" style="rounded=0;whiteSpace=wrap;html=1;" vertex="1" parent="1">
          <mxGeometry x="210" y="130" width="120" height="60" as="geometry" />
        </mxCell>
        <mxCell id="hKppfMFbeSZoKYwbKGWA-2" value="" style="endArrow=classic;html=1;rounded=0;exitX=0.5;exitY=1;exitDx=0;exitDy=0;" edge="1" parent="1" source="hKppfMFbeSZoKYwbKGWA-1">
          <mxGeometry width="50" height="50" relative="1" as="geometry">
            <mxPoint x="390" y="380" as="sourcePoint" />
            <mxPoint x="270" y="240" as="targetPoint" />
          </mxGeometry>
        </mxCell>
        <mxCell id="hKppfMFbeSZoKYwbKGWA-6" value="" style="edgeStyle=orthogonalEdgeStyle;rounded=0;orthogonalLoop=1;jettySize=auto;html=1;" edge="1" parent="1" source="hKppfMFbeSZoKYwbKGWA-4" target="hKppfMFbeSZoKYwbKGWA-5">
          <mxGeometry relative="1" as="geometry" />
        </mxCell>
        <mxCell id="hKppfMFbeSZoKYwbKGWA-4" value="&lt;font style=&quot;font-size: 18px;&quot;&gt;建立拥堵模型&lt;/font&gt;" style="rounded=0;whiteSpace=wrap;html=1;" vertex="1" parent="1">
          <mxGeometry x="210" y="240" width="120" height="60" as="geometry" />
        </mxCell>
        <mxCell id="hKppfMFbeSZoKYwbKGWA-8" value="" style="edgeStyle=orthogonalEdgeStyle;rounded=0;orthogonalLoop=1;jettySize=auto;html=1;" edge="1" parent="1" source="hKppfMFbeSZoKYwbKGWA-5" target="hKppfMFbeSZoKYwbKGWA-7">
          <mxGeometry relative="1" as="geometry" />
        </mxCell>
        <mxCell id="hKppfMFbeSZoKYwbKGWA-10" value="" style="edgeStyle=orthogonalEdgeStyle;rounded=0;orthogonalLoop=1;jettySize=auto;html=1;" edge="1" parent="1" source="hKppfMFbeSZoKYwbKGWA-5" target="hKppfMFbeSZoKYwbKGWA-9">
          <mxGeometry relative="1" as="geometry" />
        </mxCell>
        <mxCell id="hKppfMFbeSZoKYwbKGWA-5" value="&lt;font style=&quot;font-size: 18px;&quot;&gt;是否启用&lt;/font&gt;&lt;div&gt;&lt;font style=&quot;font-size: 18px;&quot;&gt;应急&lt;/font&gt;&lt;span style=&quot;font-size: 18px; background-color: initial;&quot;&gt;车道&lt;/span&gt;&lt;/div&gt;" style="rhombus;whiteSpace=wrap;html=1;" vertex="1" parent="1">
          <mxGeometry x="170" y="350" width="200" height="85" as="geometry" />
        </mxCell>
        <mxCell id="hKppfMFbeSZoKYwbKGWA-18" style="edgeStyle=orthogonalEdgeStyle;rounded=0;orthogonalLoop=1;jettySize=auto;html=1;entryX=0.75;entryY=0;entryDx=0;entryDy=0;" edge="1" parent="1" source="hKppfMFbeSZoKYwbKGWA-7" target="hKppfMFbeSZoKYwbKGWA-11">
          <mxGeometry relative="1" as="geometry">
            <Array as="points">
              <mxPoint x="474" y="600" />
              <mxPoint x="384" y="600" />
            </Array>
          </mxGeometry>
        </mxCell>
        <mxCell id="hKppfMFbeSZoKYwbKGWA-7" value="&lt;font style=&quot;font-size: 18px;&quot;&gt;计算流量、车速、密度变化&lt;/font&gt;" style="whiteSpace=wrap;html=1;" vertex="1" parent="1">
          <mxGeometry x="414" y="362.5" width="120" height="60" as="geometry" />
        </mxCell>
        <mxCell id="hKppfMFbeSZoKYwbKGWA-9" value="&lt;span style=&quot;font-size: 18px;&quot;&gt;计算流量、车速、密度变化&lt;/span&gt;" style="whiteSpace=wrap;html=1;" vertex="1" parent="1">
          <mxGeometry x="210" y="500" width="120" height="60" as="geometry" />
        </mxCell>
        <mxCell id="hKppfMFbeSZoKYwbKGWA-11" value="&lt;font style=&quot;font-size: 18px;&quot;&gt;对比分析结果&lt;/font&gt;" style="rounded=0;whiteSpace=wrap;html=1;" vertex="1" parent="1">
          <mxGeometry x="294" y="670" width="120" height="60" as="geometry" />
        </mxCell>
        <mxCell id="hKppfMFbeSZoKYwbKGWA-12" style="edgeStyle=orthogonalEdgeStyle;rounded=0;orthogonalLoop=1;jettySize=auto;html=1;" edge="1" parent="1">
          <mxGeometry relative="1" as="geometry">
            <mxPoint x="264.96" y="560" as="sourcePoint" />
            <mxPoint x="340" y="670" as="targetPoint" />
            <Array as="points">
              <mxPoint x="265" y="600" />
              <mxPoint x="340" y="600" />
            </Array>
          </mxGeometry>
        </mxCell>
        <mxCell id="hKppfMFbeSZoKYwbKGWA-19" value="否" style="text;html=1;align=center;verticalAlign=middle;resizable=0;points=[];autosize=1;strokeColor=none;fillColor=none;" vertex="1" parent="1">
          <mxGeometry x="360" y="368" width="40" height="30" as="geometry" />
        </mxCell>
        <mxCell id="hKppfMFbeSZoKYwbKGWA-20" value="是" style="text;html=1;align=center;verticalAlign=middle;resizable=0;points=[];autosize=1;strokeColor=none;fillColor=none;" vertex="1" parent="1">
          <mxGeometry x="260" y="448" width="40" height="30" as="geometry" />
        </mxCell>
      </root>
    </mxGraphModel>
  </diagram>
</mxfile>
